<?xml version="1.0" encoding="UTF-8" standalone="no"?>
<svg
   xmlns:dc="http://purl.org/dc/elements/1.1/"
   xmlns:cc="http://creativecommons.org/ns#"
   xmlns:rdf="http://www.w3.org/1999/02/22-rdf-syntax-ns#"
   xmlns:svg="http://www.w3.org/2000/svg"
   xmlns="http://www.w3.org/2000/svg"
   xmlns:sodipodi="http://sodipodi.sourceforge.net/DTD/sodipodi-0.dtd"
   xmlns:inkscape="http://www.inkscape.org/namespaces/inkscape"
   viewBox="0 0 78.169996 55.324986"
   version="1.1"
   id="svg1221"
   sodipodi:docname="favicon.svg"
   width="78.169998"
   height="55.324986"
   inkscape:version="0.92.3 (2405546, 2018-03-11)">
  <metadata
     id="metadata1225">
    <rdf:RDF>
      <cc:Work
         rdf:about="">
        <dc:format>image/svg+xml</dc:format>
        <dc:type
           rdf:resource="http://purl.org/dc/dcmitype/StillImage" />
        <dc:title>Recurso 1</dc:title>
      </cc:Work>
    </rdf:RDF>
  </metadata>
  <sodipodi:namedview
     pagecolor="#ffffff"
     bordercolor="#666666"
     borderopacity="1"
     objecttolerance="10"
     gridtolerance="10"
     guidetolerance="10"
     inkscape:pageopacity="0"
     inkscape:pageshadow="2"
     inkscape:window-width="1366"
     inkscape:window-height="711"
     id="namedview1223"
     showgrid="false"
     fit-margin-top="0"
     fit-margin-left="0"
     fit-margin-right="0"
     fit-margin-bottom="0"
     inkscape:zoom="7.287626"
     inkscape:cx="49.321243"
     inkscape:cy="35.458283"
     inkscape:window-x="0"
     inkscape:window-y="31"
     inkscape:window-maximized="1"
     inkscape:current-layer="svg1221" />
  <defs
     id="defs1157">
    <style
       id="style1155">.a{fill:#f7ef52;}.c{fill:#26ace1;}.d{fill:#27ace1;}.e{fill:#f6ef52;}.f{fill:#f6ef53;}.g{fill:#f5ee54;}.h{fill:#1daedd;}.i{fill:#fefefe;}.j{fill:#28ace0;}.k{fill:#2caddf;}.l{fill:#2baddf;}</style>
  </defs>
  <title
     id="title1159">Recurso 1</title>
  <path
     class="a"
     d="M 39.12,55.324985 H 2 c -1.69,0 -2,-0.33 -2,-2 v -35.51 c 0,-1.61 0.36,-2 2,-2 h 74.17 c 1.57,0 2,0.45 2,2 v 35.51 c 0,1.56 -0.44,2 -2,2 z"
     id="path1161"
     inkscape:connector-curvature="0"
     style="fill:#f7ef52" />
  <path
     class="b"
     d="m 15.61,6.7649855 a 7.36,7.36 0 0 1 -1.55,4.2399995 3.34,3.34 0 0 1 -5.33,0 8.33,8.33 0 0 1 0.11,-9.7999995 3.4,3.4 0 0 1 5.15,0 8.43,8.43 0 0 1 1.62,5.56 z"
     id="path1167"
     inkscape:connector-curvature="0"
     style="fill:#f7ef52;fill-opacity:1" />
  <path
     class="b"
     d="m 62.6,6.3749855 a 7.81,7.81 0 0 1 1.22,-4.62 3.39,3.39 0 0 1 5.87,-0.12 8.63,8.63 0 0 1 0,9.0899995 c -1.8,2.46 -4.92,2.06 -6.27,-0.8099995 a 7.54,7.54 0 0 1 -0.82,-3.54 z"
     id="path1169"
     inkscape:connector-curvature="0"
     style="fill:#f7ef52;fill-opacity:1" />
  <path
     class="b"
     d="m 38.69,50.104985 a 31.49,31.49 0 0 1 -14.48,-3.1 c -6,-3 -9.89,-8 -12.18,-14.25 a 30.67,30.67 0 0 1 -2.03,-10.75 c 0,-0.58 0,-1.16 0.58,-1.51 a 1.46,1.46 0 0 1 1.52,-0.07 c 0.57,0.28 0.62,0.8 0.63,1.35 a 29.58,29.58 0 0 0 1.74,9.86 c 3.09,8.62 9.12,13.82 18.21,15.3 a 33.46,33.46 0 0 0 16.52,-1.19 22.43,22.43 0 0 0 13.26,-12.11 31.36,31.36 0 0 0 3,-12 c 0,-1 0.55,-1.47 1.42,-1.4 a 1.24,1.24 0 0 1 1.26,1.47 c -0.72,11.57 -5.39,20.68 -16.23,25.9 a 31.33,31.33 0 0 1 -13.22,2.5 z"
     id="path1181"
     inkscape:connector-curvature="0"
     style="fill:#26abe1" />
</svg>
