<svg xmlns="http://www.w3.org/2000/svg" viewBox="0 0 170.77 55.33"><defs><style>.cls-1{fill:#f7ef52;}.cls-2{fill:#26abe1;}.cls-3{fill:#26ace1;}.cls-4{fill:#27ace1;}.cls-5{fill:#f6ef52;}.cls-6{fill:#f6ef53;}.cls-7{fill:#f5ee54;}.cls-8{fill:#1daedd;}</style></defs><title>Asset 1</title><g id="Layer_2" data-name="Layer 2"><g id="Layer_1-2" data-name="Layer 1"><path class="cls-1" d="M39.12,55.33H2c-1.69,0-2-.33-2-2V17.82c0-1.61.36-2,2-2H76.17c1.57,0,2,.45,2,2V53.33c0,1.56-.44,2-2,2Z"/><path class="cls-2" d="M128.48,37.17h41.17c.84,0,1.13.15,1.12,1.07q-.08,7.08,0,14.16c0,1-.22,1.2-1.19,1.2H87c-.81,0-1.07-.16-1.06-1q.07-7.12,0-14.26c0-.89.2-1.15,1.13-1.15Q107.79,37.19,128.48,37.17Z"/><path class="cls-2" d="M99.67,33.16c-.6-1.15-1.13-2.32-1.76-3.45a.8.8,0,0,1-.13-.19.94.94,0,0,1,.4-1.27,3.93,3.93,0,0,0,1.3-4.4A4,4,0,0,0,96,20.77a57.44,57.44,0,0,0-5.87-.12c-.66,0-.72.41-.72.93v5.68c0,1.63,0,3.26,0,4.95,0,2.1-.4,1.8,1.94,1.85.67,0,.86-.26.86-.88v-3c0-.49.1-.72.65-.72,1.81-.07,1.8-.1,2.58,1.55A10,10,0,0,1,96,32.12c0,.11,0,.22.08.33a2.39,2.39,0,0,0,3,1.54h.1C99.92,34,100,33.73,99.67,33.16ZM95.05,27a23.42,23.42,0,0,1-2.37,0c-.4,0-.53-.16-.52-.53s0-.95,0-1.41c0-1.86,0-1.86,1.86-1.86h.79a1.9,1.9,0,1,1,.24,3.8Z"/><path class="cls-2" d="M15.61,6.77A7.36,7.36,0,0,1,14.06,11a3.35,3.35,0,0,1-4.68.65A4,4,0,0,1,8.73,11a8.33,8.33,0,0,1,.11-9.8,3.4,3.4,0,0,1,4.8-.36,4,4,0,0,1,.35.36A8.44,8.44,0,0,1,15.61,6.77Z"/><path class="cls-2" d="M62.6,6.38a7.77,7.77,0,0,1,1.22-4.62,3.39,3.39,0,0,1,5.87-.12,8.61,8.61,0,0,1,0,9.09c-1.8,2.46-4.92,2.06-6.27-.81A7.54,7.54,0,0,1,62.6,6.38Z"/><path class="cls-2" d="M122.54,32.83V26.35c0-.44.16-1.08-.53-1.17s-1.54-.4-1.64.91c-2.07-1.51-4.18-1.32-5.7.4a5,5,0,0,0,0,6.32,4,4,0,0,0,5.55.48c.28,1.14,1.19.7,1.86.66S122.54,33.25,122.54,32.83Zm-2.43-3.13a2.1,2.1,0,0,1-2,2.24h0a2.13,2.13,0,0,1-2.06-2.2v0a2.06,2.06,0,0,1,1.78-2.29h.28a2,2,0,0,1,2,2.08A1.48,1.48,0,0,1,120.11,29.7Z"/><path class="cls-2" d="M108.93,34.2a4.38,4.38,0,0,1-3.21-1.2c-.32-.29-.67-.74-.17-1.08s.83-1.32,1.7-.69c.57.42,1.06.91,1.85.78.29,0,.51-.13.61-.42a.59.59,0,0,0-.29-.76,7.35,7.35,0,0,0-1-.43c-.52-.2-1.07-.36-1.57-.61a2.38,2.38,0,0,1,0-4.3,4.25,4.25,0,0,1,4.68.37c.38.27.87.65.4,1.11s-.86,1.27-1.72.67a2,2,0,0,0-1.48-.45c-.27,0-.55.06-.61.39s.21.47.45.57c.79.33,1.62.59,2.38,1a2.47,2.47,0,0,1,1.53,2.46,2.54,2.54,0,0,1-1.71,2.24A4,4,0,0,1,108.93,34.2Z"/><path class="cls-2" d="M127.41,34.2a4.39,4.39,0,0,1-3-1.07c-.39-.33-.83-.78-.28-1.22s.88-1.4,1.78-.6a2.14,2.14,0,0,0,1.78.7.65.65,0,0,0,.62-.54.6.6,0,0,0-.34-.66,11,11,0,0,0-2-.76,2.65,2.65,0,0,1-1.79-1.84,2.46,2.46,0,0,1,1.32-2.75,4.43,4.43,0,0,1,4.69.43c.3.26.86.56.4,1s-.81,1.27-1.7.76c-.37-.21-.69-.53-1.17-.48s-.8-.13-.92.35.33.58.66.71a12,12,0,0,1,2.37,1,2.48,2.48,0,0,1,1,3.36,2.58,2.58,0,0,1-1.16,1.08A4,4,0,0,1,127.41,34.2Z"/><path class="cls-3" d="M101.14,29.62V26c0-.64.19-.93.84-.87a5.34,5.34,0,0,0,.8,0c.67,0,1,.22,1,.92v7.07c0,.63-.25.92-.9.85a2.73,2.73,0,0,0-.7,0c-.79.12-1-.2-1-1C101.18,31.88,101.14,30.75,101.14,29.62Z"/><path class="cls-4" d="M102.33,24a1.27,1.27,0,0,1-1.4-1.11,1.4,1.4,0,0,1,0-.29,1.32,1.32,0,0,1,1.23-1.42.54.54,0,0,1,.18,0,1.33,1.33,0,0,1,1.41,1.26v.17A1.28,1.28,0,0,1,102.59,24Z"/><path class="cls-2" d="M38.69,50.11A31.52,31.52,0,0,1,24.21,47c-6-3-9.89-8-12.18-14.25A30.69,30.69,0,0,1,10,22c0-.58,0-1.16.58-1.51a1.44,1.44,0,0,1,1.52-.07c.57.28.62.8.63,1.35a29.63,29.63,0,0,0,1.74,9.86c3.09,8.62,9.12,13.82,18.21,15.3A33.56,33.56,0,0,0,49.2,45.75,22.48,22.48,0,0,0,62.46,33.64a31.28,31.28,0,0,0,3-12c0-1,.55-1.47,1.42-1.4a1.23,1.23,0,0,1,1.28,1.19,1.32,1.32,0,0,1,0,.28c-.72,11.57-5.39,20.68-16.23,25.9A31.38,31.38,0,0,1,38.69,50.11Z"/><path class="cls-1" d="M94,38.84H90.24c-.74-.06-1,.18-1,.94v4.88l0,5c0,.35-.09.73.45.85,1.41.32,1.87,0,1.87-1.41v-.3c.06-.79-.29-1.83.17-2.3s1.45-.15,2.2-.15A3.74,3.74,0,1,0,94,38.84Zm-1.28,5.48c-1.19,0-1.19,0-1.19-1.75s0-1.72,1.21-1.72c1.83,0,2.6.5,2.62,1.7S94.6,44.32,92.75,44.32Z"/><path class="cls-1" d="M124.35,39.18a1.75,1.75,0,0,0-2-.2c-.5.19-.24.84-.24,1.28v3.09a3.46,3.46,0,0,0-4.76.68,4.42,4.42,0,0,0,.24,5.52c1,1,3.22,1.65,4.59.25a1.57,1.57,0,0,0,.19.26,1.38,1.38,0,0,0,1.95.08c.15-1.65.06-3.29.09-5C124.41,43.18,124.52,41.18,124.35,39.18Zm-3.92,9.57a1.88,1.88,0,0,1-1.79-2,.22.22,0,0,0,0-.08,1.88,1.88,0,0,1,1.66-2.08h.12a2.08,2.08,0,0,1,0,4.14Z"/><path class="cls-1" d="M157.1,47.35H160c1.95,0,2.43-.79,1.58-2.62a3.61,3.61,0,0,0-1.38-1.54,3.73,3.73,0,0,0-4.86.76,4,4,0,0,0,4.94,6.12c.44-.26.79-.5.37-1.08-.33-.43-.45-1-1.26-.54a1.88,1.88,0,0,1-2.6-.38c-.11-.17-.25-.28-.18-.54S156.92,47.35,157.1,47.35Zm.29-2.7a1.4,1.4,0,0,1,1-.21c.61.14,1.31.44,1.26,1s-.8.16-1.21.3a.7.7,0,0,1-.25,0,2.91,2.91,0,0,1-.59,0c-.33-.06-.86.23-.95-.2S157,44.85,157.39,44.65Z"/><path class="cls-1" d="M105.24,45.19a3.67,3.67,0,0,0-.7-1.23,3.72,3.72,0,0,0-5.24-.41A4.05,4.05,0,0,0,98.52,49a4,4,0,0,0,5.12,1.15c.39-.23,1-.57.56-1.11s-.56-1-1.4-.54a1.74,1.74,0,0,1-2.71-1.16l3.58,0C105.4,47.4,105.78,46.86,105.24,45.19Zm-2.52.59H100c.67-1.53,2.24-1.82,3-.71a.86.86,0,0,1,.21.53C103.21,45.87,102.9,45.78,102.72,45.78Z"/><path class="cls-1" d="M136.65,43.52a3.74,3.74,0,0,0-5.07,0A4.15,4.15,0,0,0,131,49a3.85,3.85,0,0,0,5,1.09c.38-.17,1.09-.26.66-1s-.55-1.18-1.46-.62a1.88,1.88,0,0,1-2.45-.36c-.15-.18-.36-.3-.26-.61s.39-.18.6-.18H135c.62,0,1.35-.12,1.95-.08a.72.72,0,0,0,.87-.81A3.55,3.55,0,0,0,136.65,43.52Zm-1,2.12c-.13.29-.41.14-.62.15h-1.69c-.28,0-.68.17-.8-.17s.22-.59.47-.8a1.75,1.75,0,0,1,2.35.13C135.51,45.14,135.75,45.35,135.62,45.64Z"/><path class="cls-1" d="M109.42,43.64a3.55,3.55,0,0,1,2.91-.94,2.69,2.69,0,0,1,2.39,2.54c.09,1.52,0,3,0,4.58,0,.91-.68.6-1.15.64s-1,.08-1-.71V46.47c0-1.09-.52-1.76-1.45-1.73a1.67,1.67,0,0,0-1.63,1.72v3.23c0,1.06-.58.77-1.12.78s-1.14.14-1.12-.79c.06-1.89,0-3.79,0-5.68,0-.43-.32-1.1.46-1.21S109.27,42.54,109.42,43.64Z"/><path class="cls-1" d="M139.79,46.57V43.68c0-.34-.13-.85.39-.88s1.15-.32,1.41.34.39.37.69.15a3.06,3.06,0,0,1,3.47-.23,3,3,0,0,1,1.46,3c0,1.19-.06,2.39,0,3.58.06,1-.56.86-1.16.86s-1.13.09-1.08-.82c.07-1.09,0-2.19,0-3.29s-.51-1.6-1.36-1.62a1.65,1.65,0,0,0-1.71,1.58c-.05,1.06-.05,2.12,0,3.19.06.86-.34,1-1.06,1s-1.18,0-1.1-.92S139.79,47.56,139.79,46.57Z"/><path class="cls-1" d="M166.09,42.59a3.3,3.3,0,0,1,2,.67c.3.23.92.45.49,1s-.76,1.14-1.53.5a1.22,1.22,0,0,0-.43-.24c-.49-.17-1.08-.32-1.29.27s.43.65.8.79a7.09,7.09,0,0,1,2,.91,2.11,2.11,0,0,1,.58,2.95,2.17,2.17,0,0,1-.71.67,4.13,4.13,0,0,1-4.65-.4c-.28-.26-.69-.62-.22-1s.7-1.13,1.46-.54a2.32,2.32,0,0,0,1.38.7.78.78,0,0,0,.85-.54c.12-.43-.18-.63-.47-.77a9.42,9.42,0,0,0-1.12-.41c-1.66-.55-2.32-1.39-2.09-2.68A2.78,2.78,0,0,1,166.09,42.59Z"/><path class="cls-5" d="M149.58,47.41V45.72c0-.56.18-1-.63-1.31-.49-.18-.44-1.33,0-1.46,1-.35.67-1.08.66-1.67,0-.74.18-1.08,1-1.14,1.21-.1,1.18-.15,1.22,1.1,0,.69-.4,1.64,1,1.6.48,0,.29.64.32,1s0,.75-.48.69c-.88-.11-.86.41-.85,1v3.79c.05.88-.26,1.15-1.13,1.15s-1.13-.28-1.05-1.09C149.63,48.75,149.58,48.08,149.58,47.41Z"/><path class="cls-6" d="M126.1,46.6V43.52c0-1,.61-.73,1.14-.76s1.06-.06,1,.78V49.7c0,1-.62.74-1.15.77s-1.07,0-1-.78C126.14,48.66,126.1,47.63,126.1,46.6Z"/><path class="cls-7" d="M127.08,41.69c-.77-.14-1.25-.51-1.15-1.28a1.1,1.1,0,0,1,1.12-1.08.55.55,0,0,1,.18,0,1.08,1.08,0,0,1,1.1,1.07.67.67,0,0,1,0,.2C128.28,41.44,127.69,41.62,127.08,41.69Z"/><path class="cls-8" d="M124.32,50.14v-11c.23.21.17.49.18.75v9.46C124.48,49.65,124.54,49.93,124.32,50.14Z"/></g></g></svg>