<?xml version="1.0" encoding="UTF-8" standalone="no"?>
<svg
   xmlns:dc="http://purl.org/dc/elements/1.1/"
   xmlns:cc="http://creativecommons.org/ns#"
   xmlns:rdf="http://www.w3.org/1999/02/22-rdf-syntax-ns#"
   xmlns:svg="http://www.w3.org/2000/svg"
   xmlns="http://www.w3.org/2000/svg"
   xmlns:sodipodi="http://sodipodi.sourceforge.net/DTD/sodipodi-0.dtd"
   xmlns:inkscape="http://www.inkscape.org/namespaces/inkscape"
   viewBox="0 0 170.77 55.32"
   version="1.1"
   id="svg1033"
   sodipodi:docname="logo.svg"
   inkscape:version="0.92.3 (2405546, 2018-03-11)">
  <metadata
     id="metadata1037">
    <rdf:RDF>
      <cc:Work
         rdf:about="">
        <dc:format>image/svg+xml</dc:format>
        <dc:type
           rdf:resource="http://purl.org/dc/dcmitype/StillImage" />
      </cc:Work>
    </rdf:RDF>
  </metadata>
  <sodipodi:namedview
     pagecolor="#ffffff"
     bordercolor="#666666"
     borderopacity="1"
     objecttolerance="10"
     gridtolerance="10"
     guidetolerance="10"
     inkscape:pageopacity="0"
     inkscape:pageshadow="2"
     inkscape:window-width="1366"
     inkscape:window-height="711"
     id="namedview1035"
     showgrid="false"
     inkscape:zoom="3.643813"
     inkscape:cx="70.338067"
     inkscape:cy="30.271506"
     inkscape:window-x="0"
     inkscape:window-y="31"
     inkscape:window-maximized="1"
     inkscape:current-layer="svg1033" />
  <defs
     id="defs969">
    <style
       id="style967">.a{fill:#f7ef52;}.b{fill:#26abe1;}.c{fill:#26ace1;}.d{fill:#27ace1;}.e{fill:#f6ef52;}.f{fill:#f6ef53;}.g{fill:#f5ee54;}.h{fill:#1daedd;}.i{fill:#fefefe;}.j{fill:#28ace0;}.k{fill:#2caddf;}.l{fill:#2baddf;}</style>
  </defs>
  <title
     id="title971">Recurso 1</title>
  <path
     class="a"
     d="M39.12,55.32H2c-1.69,0-2-.33-2-2V17.81c0-1.61.36-2,2-2H76.17c1.57,0,2,.45,2,2V53.32c0,1.56-.44,2-2,2Z"
     id="path973"
     style="fill:#26abe1;fill-opacity:1" />
  <path
     class="b"
     d="M128.48,37.16q20.58,0,41.17,0c.84,0,1.13.15,1.12,1.07q-.08,7.08,0,14.16c0,1-.22,1.2-1.19,1.2q-35.55,0-71.09,0c-3.82,0-7.64,0-11.46,0-.81,0-1.07-.16-1.06-1q.07-7.12,0-14.26c0-.89.2-1.15,1.13-1.15Q107.79,37.19,128.48,37.16Z"
     id="path975" />
  <path
     class="b"
     d="M89.37,27.25c0-1.89,0-3.79,0-5.68,0-.52.06-.95.72-.93a57.5,57.5,0,0,1,5.87.12,4,4,0,0,1,3.52,3.08,3.93,3.93,0,0,1-1.3,4.4.94.94,0,0,0-.27,1.46c.63,1.13,1.16,2.3,1.76,3.45.3.57.25.88-.48.83h-.1A2.39,2.39,0,0,1,96,32.11,9.48,9.48,0,0,0,95.39,31c-.78-1.65-.77-1.62-2.58-1.55-.55,0-.67.23-.65.72,0,1,0,2,0,3,0,.62-.19.9-.86.88-2.34-.05-1.91.25-1.94-1.85C89.35,30.51,89.37,28.88,89.37,27.25Z"
     id="path977" />
  <path
     class="b"
     d="M15.61,6.76A7.36,7.36,0,0,1,14.06,11a3.34,3.34,0,0,1-5.33,0A8.33,8.33,0,0,1,8.84,1.2a3.4,3.4,0,0,1,5.15,0A8.43,8.43,0,0,1,15.61,6.76Z"
     id="path979" />
  <path
     class="b"
     d="M62.6,6.37a7.81,7.81,0,0,1,1.22-4.62,3.39,3.39,0,0,1,5.87-.12,8.63,8.63,0,0,1,0,9.09c-1.8,2.46-4.92,2.06-6.27-.81A7.54,7.54,0,0,1,62.6,6.37Z"
     id="path981" />
  <path
     class="b"
     d="M120.37,26.08c.1-1.31.95-1,1.64-.91s.53.73.53,1.17q0,3.24,0,6.48c0,.42.21,1.08-.46,1.12s-1.58.48-1.86-.66a4,4,0,0,1-5.55-.48,5,5,0,0,1,0-6.32C116.19,24.76,118.3,24.57,120.37,26.08Z"
     id="path983" />
  <path
     class="b"
     d="M108.93,34.19a4.35,4.35,0,0,1-3.21-1.2c-.32-.29-.67-.74-.17-1.08s.83-1.32,1.7-.69c.57.42,1.06.91,1.85.78.29-.05.51-.13.61-.42a.59.59,0,0,0-.29-.76,8.7,8.7,0,0,0-1-.43c-.52-.2-1.07-.36-1.57-.61a2.39,2.39,0,0,1,0-4.3,4.27,4.27,0,0,1,4.68.37c.38.27.87.65.4,1.11s-.86,1.27-1.72.67a2,2,0,0,0-1.48-.45c-.27,0-.55.06-.61.39s.21.47.45.57c.79.33,1.62.59,2.38,1a2.47,2.47,0,0,1,1.53,2.46,2.53,2.53,0,0,1-1.71,2.24A3.93,3.93,0,0,1,108.93,34.19Z"
     id="path985" />
  <path
     class="b"
     d="M127.41,34.19a4.39,4.39,0,0,1-3-1.07c-.39-.33-.83-.78-.28-1.22s.88-1.4,1.78-.6a2.11,2.11,0,0,0,1.78.7.64.64,0,0,0,.62-.54.62.62,0,0,0-.34-.66,12.18,12.18,0,0,0-2-.76,2.63,2.63,0,0,1-1.79-1.84,2.46,2.46,0,0,1,1.32-2.75,4.45,4.45,0,0,1,4.69.43c.3.26.86.56.4,1s-.81,1.27-1.7.76c-.37-.21-.69-.53-1.17-.48s-.8-.13-.92.35.33.58.66.71a12.66,12.66,0,0,1,2.37,1,2.48,2.48,0,0,1-.16,4.44A4,4,0,0,1,127.41,34.19Z"
     id="path987" />
  <path
     class="c"
     d="M101.14,29.61c0-1.2,0-2.39,0-3.59,0-.64.19-.93.84-.87a5.34,5.34,0,0,0,.8,0c.67,0,1,.22,1,.92q0,3.53,0,7.07c0,.63-.25.92-.9.85a2.73,2.73,0,0,0-.7,0c-.79.12-1-.2-1-1C101.18,31.87,101.14,30.74,101.14,29.61Z"
     id="path989" />
  <path
     class="d"
     d="M102.33,24a1.26,1.26,0,0,1-1.4-1.4,1.33,1.33,0,0,1,1.41-1.42,1.34,1.34,0,0,1,1.41,1.43A1.28,1.28,0,0,1,102.33,24Z"
     id="path991" />
  <path
     class="b"
     d="M38.69,50.1A31.49,31.49,0,0,1,24.21,47c-6-3-9.89-8-12.18-14.25A30.67,30.67,0,0,1,10,22c0-.58,0-1.16.58-1.51a1.46,1.46,0,0,1,1.52-.07c.57.28.62.8.63,1.35a29.58,29.58,0,0,0,1.74,9.86c3.09,8.62,9.12,13.82,18.21,15.3a33.46,33.46,0,0,0,16.52-1.19A22.43,22.43,0,0,0,62.46,33.63a31.36,31.36,0,0,0,3-12c0-1,.55-1.47,1.42-1.4a1.24,1.24,0,0,1,1.26,1.47c-.72,11.57-5.39,20.68-16.23,25.9A31.33,31.33,0,0,1,38.69,50.1Z"
     id="path993"
     style="fill:#f7ef52;fill-opacity:1" />
  <path
     class="a"
     d="M89.24,44.65c0-1.62,0-3.25,0-4.88,0-.76.26-1,1-.94,1.26,0,2.53,0,3.79,0a3.74,3.74,0,1,1-.06,7.48c-.75,0-1.74-.32-2.2.15s-.11,1.51-.17,2.3c0,.1,0,.2,0,.3,0,1.39-.46,1.73-1.87,1.41-.54-.12-.45-.5-.45-.85Z"
     id="path995" />
  <path
     class="a"
     d="M124.32,50.13a1.38,1.38,0,0,1-2.14-.34c-1.37,1.4-3.6.75-4.59-.25a4.43,4.43,0,0,1-.24-5.52,3.46,3.46,0,0,1,4.76-.68c0-1.09,0-2.09,0-3.09,0-.44-.26-1.09.24-1.28a1.76,1.76,0,0,1,2,.2c.17,2,.06,4,.06,6C124.38,46.84,124.47,48.48,124.32,50.13Z"
     id="path997" />
  <path
     class="a"
     d="M159.1,47.34h-2c-.18,0-.43-.09-.5.17s.07.37.18.54a1.88,1.88,0,0,0,2.6.38c.81-.47.93.11,1.26.54.42.58.07.82-.37,1.08a4,4,0,0,1-5.05-.83,4,4,0,0,1,.11-5.29,3.73,3.73,0,0,1,4.86-.76,3.61,3.61,0,0,1,1.38,1.54c.85,1.83.37,2.62-1.58,2.62Z"
     id="path999" />
  <path
     class="a"
     d="M100.09,47.34a1.74,1.74,0,0,0,2.71,1.16c.84-.46,1,0,1.4.54s-.17.88-.56,1.11A4,4,0,0,1,98.52,49a4.06,4.06,0,0,1,.78-5.46,3.72,3.72,0,0,1,5.94,1.64c.54,1.67.16,2.21-1.57,2.21Z"
     id="path1001" />
  <path
     class="a"
     d="M135,47.34c-.63,0-1.26,0-1.89,0-.21,0-.5-.13-.6.18s.11.43.26.61a1.87,1.87,0,0,0,2.45.36c.91-.56,1.13,0,1.46.62.43.74-.28.83-.66,1a3.85,3.85,0,0,1-5-1.09,4.15,4.15,0,0,1,.56-5.51,3.75,3.75,0,0,1,5.07,0,3.55,3.55,0,0,1,1.17,2.94c0,.55-.27.85-.87.81S135.62,47.34,135,47.34Z"
     id="path1003" />
  <path
     class="a"
     d="M109.42,43.63a3.58,3.58,0,0,1,2.91-.94,2.69,2.69,0,0,1,2.39,2.54c.09,1.52,0,3.05,0,4.58,0,.91-.68.6-1.15.64s-1,.08-1-.71c0-1.09,0-2.19,0-3.28s-.52-1.76-1.45-1.73a1.68,1.68,0,0,0-1.63,1.76c0,1.07,0,2.13,0,3.19s-.58.77-1.12.78-1.14.14-1.12-.79c.06-1.89,0-3.79,0-5.68,0-.43-.32-1.1.46-1.21S109.27,42.53,109.42,43.63Z"
     id="path1005" />
  <path
     class="a"
     d="M139.79,46.56c0-1,0-1.93,0-2.89,0-.34-.13-.85.39-.88s1.15-.32,1.41.34.39.37.69.15a3.09,3.09,0,0,1,3.47-.23,3,3,0,0,1,1.46,3c0,1.19-.06,2.39,0,3.58.06,1-.56.86-1.16.86s-1.13.09-1.08-.82c.07-1.09,0-2.19,0-3.29s-.51-1.6-1.36-1.62a1.66,1.66,0,0,0-1.71,1.58,30.86,30.86,0,0,0,0,3.19c.06.86-.34,1-1.06,1s-1.18,0-1.1-.92S139.79,47.55,139.79,46.56Z"
     id="path1007" />
  <path
     class="a"
     d="M166.09,42.58a3.34,3.34,0,0,1,2,.67c.3.23.92.45.49,1s-.76,1.14-1.53.5a1.22,1.22,0,0,0-.43-.24c-.49-.17-1.08-.32-1.29.27s.43.65.8.79a7.42,7.42,0,0,1,2,.91A2.13,2.13,0,0,1,168,50.1a4.12,4.12,0,0,1-4.65-.4c-.28-.26-.69-.62-.22-1s.7-1.13,1.46-.54a2.25,2.25,0,0,0,1.38.7.77.77,0,0,0,.85-.54c.12-.43-.18-.63-.47-.77a11.57,11.57,0,0,0-1.12-.41c-1.66-.55-2.32-1.39-2.09-2.68A2.79,2.79,0,0,1,166.09,42.58Z"
     id="path1009" />
  <path
     class="e"
     d="M149.58,47.4c0-.56,0-1.13,0-1.69s.18-1-.63-1.31c-.49-.18-.44-1.33,0-1.46,1-.35.67-1.08.66-1.67,0-.74.18-1.08,1-1.14,1.21-.1,1.18-.15,1.22,1.1,0,.69-.4,1.64,1,1.6.48,0,.29.64.32,1s0,.75-.48.69c-.88-.11-.86.41-.85,1,0,1.26,0,2.53,0,3.79.05.88-.26,1.15-1.13,1.15s-1.13-.28-1.05-1.09C149.63,48.74,149.58,48.07,149.58,47.4Z"
     id="path1011" />
  <path
     class="f"
     d="M126.1,46.59c0-1,0-2.05,0-3.08s.61-.73,1.14-.76,1.06-.06,1,.78c0,2,0,4.11,0,6.16,0,1-.62.74-1.15.77s-1.07,0-1-.78C126.14,48.65,126.1,47.62,126.1,46.59Z"
     id="path1013" />
  <path
     class="g"
     d="M127.08,41.68c-.77-.14-1.25-.51-1.15-1.28a1.1,1.1,0,0,1,1.3-1.06,1.09,1.09,0,0,1,1.09,1.27C128.28,41.43,127.69,41.61,127.08,41.68Z"
     id="path1015" />
  <path
     class="h"
     d="M124.32,50.13c0-3.65,0-7.31,0-11,.23.21.17.49.18.75v9.46C124.48,49.64,124.54,49.92,124.32,50.13Z"
     id="path1017" />
  <path
     class="i"
     d="M92.16,25.06c0-1.86,0-1.86,1.86-1.86h.79A2,2,0,0,1,96.87,25a2,2,0,0,1-1.82,2c-.78.08-1.58,0-2.37,0-.4,0-.53-.16-.52-.53S92.16,25.52,92.16,25.06Z"
     id="path1019" />
  <path
     class="i"
     d="M118.11,27.4a2.05,2.05,0,0,1,2,2.29,2.1,2.1,0,0,1-2,2.24,2.13,2.13,0,0,1-2.06-2.23A2.05,2.05,0,0,1,118.11,27.4Z"
     id="path1021" />
  <path
     class="j"
     d="M91.56,42.56c0-1.72,0-1.72,1.21-1.72,1.83,0,2.6.5,2.62,1.7s-.79,1.77-2.64,1.77C91.56,44.31,91.56,44.31,91.56,42.56Z"
     id="path1023" />
  <path
     class="d"
     d="M118.65,46.69a1.88,1.88,0,0,1,1.78-2.09,2.08,2.08,0,0,1,0,4.14A1.88,1.88,0,0,1,118.65,46.69Z"
     id="path1025" />
  <path
     class="k"
     d="M158.19,45.78a2.9,2.9,0,0,1-.59,0c-.33-.06-.86.23-.95-.2s.36-.74.74-.94a1.4,1.4,0,0,1,1-.21c.61.14,1.31.44,1.26,1s-.8.16-1.21.3A.7.7,0,0,1,158.19,45.78Z"
     id="path1027" />
  <path
     class="k"
     d="M100,45.78c.67-1.53,2.24-1.82,3-.71a.87.87,0,0,1,.21.53c0,.26-.31.17-.49.17Z"
     id="path1029" />
  <path
     class="l"
     d="M134.1,45.78a6.94,6.94,0,0,1-.79,0c-.28,0-.68.17-.8-.17s.22-.59.47-.8a1.75,1.75,0,0,1,2.35.13c.18.19.42.4.29.69s-.41.14-.62.15S134.4,45.78,134.1,45.78Z"
     id="path1031" />
</svg>
